<svg xmlns="http://www.w3.org/2000/svg" xmlns:xlink="http://www.w3.org/1999/xlink" width="1285" zoomAndPan="magnify" viewBox="160 80 1285 130" height="130" preserveAspectRatio="xMidYMid meet" version="1.0"><defs><g/></defs><g fill="#6a5144" fill-opacity="1"><g transform="translate(181.43669, 192.75204)"><g><path d="M 11.859375 -95.21875 L 28.21875 -95.21875 L 28.21875 -16.203125 L 72.0625 -16.203125 L 72.0625 0 L 11.859375 0 Z M 11.859375 -95.21875 "/></g></g></g><g fill="#6a5144" fill-opacity="1"><g transform="translate(343.512591, 192.75204)"><g><path d="M 13.453125 -95.21875 L 29.8125 -95.21875 L 29.8125 0 L 13.453125 0 Z M 13.453125 -95.21875 "/></g></g></g><g fill="#6a5144" fill-opacity="1"><g transform="translate(466.373126, 192.75204)"><g><path d="M 28.21875 0 L 12.015625 0 L 12.015625 -96.65625 L 70.765625 -37.90625 L 70.765625 -95.21875 L 86.96875 -95.21875 L 86.96875 2.171875 L 28.21875 -56.578125 Z M 28.21875 0 "/></g></g></g><g fill="#6a5144" fill-opacity="1"><g transform="translate(644.800825, 192.75204)"><g><path d="M 69.015625 -13.015625 L 30.53125 -13.015625 L 24.453125 0 L 6.515625 0 L 50.640625 -95.21875 L 92.609375 0 L 74.8125 0 Z M 61.78125 -29.375 L 50.21875 -55.703125 L 38.0625 -29.375 Z M 61.78125 -29.375 "/></g></g></g><g fill="#6a5144" fill-opacity="1"><g transform="translate(823.517934, 192.75204)"><g><path d="M 93.625 -45.875 L 61.0625 -0.4375 L 28.21875 -46.015625 L 28.21875 0 L 12.015625 0 L 12.015625 -96.65625 L 61.0625 -28.359375 L 109.828125 -96.65625 L 109.828125 0 L 93.625 0 Z M 93.625 -45.875 "/></g></g></g><g fill="#6a5144" fill-opacity="1"><g transform="translate(1024.953947, 192.75204)"><g><path d="M 13.453125 -95.21875 L 29.8125 -95.21875 L 29.8125 0 L 13.453125 0 Z M 13.453125 -95.21875 "/></g></g></g><g fill="#6a5144" fill-opacity="1"><g transform="translate(1147.814471, 192.75204)"><g><path d="M 60.203125 0 L 28.21875 -41.96875 L 28.21875 0 L 12.015625 0 L 11.859375 -95.21875 L 46.734375 -95.21875 C 51.367188 -95.21875 55.757812 -94.492188 59.90625 -93.046875 C 63.957031 -91.503906 67.523438 -89.332031 70.609375 -86.53125 C 73.703125 -83.832031 76.066406 -80.742188 77.703125 -77.265625 C 79.347656 -73.703125 80.171875 -69.988281 80.171875 -66.125 C 80.171875 -60.4375 78.476562 -55.273438 75.09375 -50.640625 C 71.625 -46.015625 67.378906 -42.785156 62.359375 -40.953125 C 60.628906 -40.273438 58.65625 -39.695312 56.4375 -39.21875 C 54.125 -38.726562 52.4375 -38.484375 51.375 -38.484375 L 80.3125 0 Z M 28.21875 -78.859375 L 28.21875 -53.25 L 42.390625 -53.25 C 48.273438 -53.25 52.8125 -54.019531 56 -55.5625 C 58.21875 -56.4375 60.097656 -57.882812 61.640625 -59.90625 C 63.085938 -61.832031 63.8125 -63.90625 63.8125 -66.125 C 63.8125 -69.5 62.269531 -72.488281 59.1875 -75.09375 C 56.09375 -77.601562 51.941406 -78.859375 46.734375 -78.859375 Z M 28.21875 -78.859375 "/></g></g></g><g fill="#6a5144" fill-opacity="1"><g transform="translate(1316.40212, 192.75204)"><g><path d="M 69.015625 -13.015625 L 30.53125 -13.015625 L 24.453125 0 L 6.515625 0 L 50.640625 -95.21875 L 92.609375 0 L 74.8125 0 Z M 61.78125 -29.375 L 50.21875 -55.703125 L 38.0625 -29.375 Z M 61.78125 -29.375 "/></g></g></g></svg>